<svg width="73" height="40" viewBox="0 0 73 40" fill="none" xmlns="http://www.w3.org/2000/svg">
<path fill-rule="evenodd" clip-rule="evenodd" d="M5.68556 17.0573L8.23893 19.5764L8.25229 19.5496L8.29888 19.4504L8.34321 19.3504L8.3853 19.2497L8.42513 19.1482L8.46263 19.046L8.49797 18.943L8.53097 18.8392L8.56172 18.7347L8.59021 18.6294L8.61646 18.5233L8.64045 18.4165L8.66219 18.3089L8.6816 18.2006L8.69884 18.0914L8.71375 17.9816L8.72641 17.8709L8.73681 17.7595L8.74496 17.6473L8.75086 17.5344L8.75451 17.4206L8.75584 17.3062L8.75444 17.1947L8.75071 17.085L8.74481 16.9773L8.73658 16.8713L8.72617 16.7672L8.71344 16.665L8.69845 16.5645L8.68121 16.466L8.66172 16.3693L8.63998 16.2745L8.61599 16.1815L8.58967 16.0904L8.56117 16.0012L8.53035 15.9137L8.49727 15.8282L8.46194 15.7445L8.42436 15.6626L8.38452 15.5826L8.34244 15.5045L8.2981 15.4282L8.25143 15.3537L8.20259 15.2811L8.15142 15.2104L8.098 15.1416L8.04233 15.0745L7.9844 15.0093L7.92422 14.946L7.8618 14.8846L7.79711 14.825L11.0842 18.0678L11.1489 18.1274L11.2113 18.1889L11.2715 18.2522L11.3294 18.3174L11.3851 18.3844L11.4385 18.4533L11.4897 18.524L11.5385 18.5966L11.5852 18.6711L11.6203 18.7317L11.6408 18.6575L11.6642 18.5787L11.6892 18.5008L11.7159 18.4238L11.744 18.3478L11.7738 18.2726L11.8051 18.1984L11.838 18.1251L11.8725 18.0527L11.9085 17.9811L11.9461 17.9106L11.9853 17.8409L12.0261 17.7722L12.0684 17.7043L12.1123 17.6373L12.1578 17.5713L12.2049 17.5062L12.2535 17.4419L12.3037 17.3787L12.4069 17.2557L12.5124 17.1384L12.6202 17.0266L12.7303 16.9203L12.8427 16.8196L12.9574 16.7245L13.0745 16.6349L13.1938 16.551L13.3155 16.4725L13.4394 16.3996L13.5657 16.3323L13.6942 16.2705L13.8252 16.2144L13.9583 16.1637L14.0939 16.1186L14.2317 16.0791L14.3654 16.0468L14.497 16.0213L14.6267 16.0025L14.7544 15.9903L14.8802 15.9848L15.0041 15.986L15.1259 15.9939L15.2458 16.0085L15.3638 16.0298L15.4797 16.0577L15.5937 16.0924L15.7058 16.1338L15.8158 16.1818L15.9239 16.2365L16.03 16.298L16.1343 16.366L16.2342 16.441L16.3276 16.523L19.3608 19.5155L19.366 19.4955L19.4003 19.3529L19.4314 19.2094L19.4596 19.0654L19.4848 18.9204L19.5069 18.7747L19.5261 18.6283L19.5422 18.481L19.5553 18.333L19.5654 18.1843L19.5726 18.0348L19.5767 17.8845L19.5778 17.7334L19.5767 17.5818L19.5726 17.4326L19.5654 17.2858L19.5553 17.1414L19.5422 16.9993L19.5261 16.8598L19.5069 16.7225L19.4848 16.5876L19.4596 16.4551L19.4315 16.3251L19.4003 16.1974L19.3661 16.0721L19.3289 15.9492L19.2888 15.8287L19.2456 15.7106L19.1994 15.5948L19.1503 15.4815L19.098 15.3705L19.0428 15.262L18.9846 15.1558L18.9234 15.052L18.8592 14.9507L18.792 14.8516L18.7217 14.755L18.6485 14.6608L18.5722 14.569L18.493 14.4796L18.4107 14.3925L18.3255 14.3079L21.6125 17.5508L21.6978 17.6354L21.7801 17.7224L21.8593 17.8119L21.9356 17.9037L22.0088 17.9979L22.0791 18.0945L22.1462 18.1936L22.2104 18.2949L22.2717 18.3987L22.3299 18.5049L22.349 18.5423L22.3483 16.2113L25.6353 19.4542L25.636 21.5875L26.7278 21.2989L27.4378 19.1957L25.7384 17.5193L23.0942 11.3485L26.3813 14.5914L27.8416 17.9994L29.0699 14.361L31.5736 16.831L31.5717 9.1076L33.4512 10.9618L34.4085 10.7088L34.9462 11.2393L34.9469 10.5665L36.0935 10.2634L36.1663 10.2454L36.2373 10.2304L36.3062 10.2185L36.3733 10.2096L36.4384 10.2037L36.5015 10.2008L36.5627 10.2009L36.6221 10.2041L36.6794 10.2103L36.7347 10.2195L36.7881 10.2317L36.8396 10.247L36.8892 10.2653L36.9368 10.2866L36.9825 10.3109L37.0262 10.3383L37.1065 10.4013L39.3451 12.6099L39.3851 12.5368L39.4291 12.4524L39.4711 12.3675L39.5111 12.2819L39.5492 12.1957L39.5854 12.1089L39.6196 12.0215L39.6519 11.9335L39.6822 11.8448L39.7105 11.7555L39.7369 11.6657L39.7613 11.5751L39.7839 11.484L39.8044 11.3923L39.8231 11.3L39.8397 11.207L39.8544 11.1134L39.8672 11.0192L39.8781 10.9245L39.8869 10.829L39.8938 10.7329L39.8988 10.6363L39.9018 10.5391L39.9029 10.4412L39.8992 10.2481L39.8877 10.0616L39.8683 9.88174L39.8412 9.70839L39.8062 9.5417L39.7634 9.3816L39.7129 9.22802L39.6545 9.08102L39.5883 8.94068L39.5143 8.80686L39.4324 8.67962L39.3428 8.55905L39.2454 8.44499L42.5325 11.6879L42.6299 11.8019L42.7195 11.9225L42.8013 12.0497L42.8753 12.1836L42.9416 12.3239L43 12.4709L43.0505 12.6245L43.0933 12.7846L43.1282 12.9513L43.1554 13.1246L43.1748 13.3045L43.1862 13.491L43.19 13.684L43.1889 13.7819L43.1859 13.8792L43.1809 13.9758L43.174 14.0719L43.1651 14.1673L43.1543 14.2621L43.1415 14.3563L43.1268 14.4499L43.1101 14.5428L43.0915 14.6352L43.0709 14.7269L43.0484 14.818L43.0433 14.8369L45.0479 14.307L43.0656 12.3512L44.0788 9.08944L46.0967 11.0802L47.16 9.67086L45.5039 5.42471L48.791 8.6676L50.447 12.9137L50.0595 13.4274L51.0083 14.3634L51.1917 14.832L52.0038 14.6174L52.0097 8.05822L55.2968 11.3011L55.2909 17.8603L52.7719 18.5261L52.5534 18.3105L52.6504 18.5583L49.8883 19.2884L48.1702 17.5934L45.5044 18.2981L44.7809 20.6385L42.1056 21.3456L39.0513 18.3324L38.219 18.5524L38.2143 22.3743L35.678 23.0447L34.8613 22.2389L34.8615 23.2605L32.767 23.8142L34.9308 25.9489L34.9258 32.7493L35.9721 32.4727L35.9633 29.9034L39.2503 33.1463L39.2592 35.7156L32.2758 37.5616L31.0936 36.3953L31.0606 36.449L31.0062 36.5336L30.9498 36.6177L30.8913 36.7012L30.8308 36.7842L30.7682 36.8667L30.7035 36.9486L30.6372 37.0294L30.5695 37.1085L30.5007 37.186L30.4306 37.2618L30.3592 37.3359L30.2865 37.4084L30.2125 37.4792L30.1373 37.5483L30.0608 37.6157L29.9831 37.6815L29.904 37.7455L29.8237 37.808L29.7421 37.8687L29.6593 37.9278L29.5751 37.9851L29.4897 38.0409L29.403 38.095L29.3151 38.1473L29.2258 38.198L29.1354 38.247L29.0436 38.2945L28.9505 38.3401L28.8562 38.3842L28.7607 38.4265L28.6638 38.4672L28.5656 38.5062L28.4662 38.5435L28.3656 38.5791L28.2636 38.6131L28.1604 38.6454L28.0558 38.6761L27.9501 38.705L23.0513 40L19.7642 36.7571L24.2691 35.5663L22.4042 33.7265L22.4052 30.7138L24.1077 30.2638L24.204 30.2399L24.2842 30.2229L23.4697 29.4194L23.056 29.5288L20.1681 26.6796L20.0806 26.7532L19.9661 26.8453L19.8503 26.9347L19.7329 27.0213L19.614 27.1051L19.4937 27.1861L19.3719 27.2643L19.2486 27.3398L19.1239 27.4125L18.9976 27.4823L18.8698 27.5495L18.7406 27.6138L18.6099 27.6753L18.4777 27.7341L18.344 27.7901L18.2088 27.8432L18.0722 27.8936L17.9341 27.9413L17.7944 27.9861L17.6534 28.0281L17.5108 28.0674L17.3682 28.1035L17.2271 28.1361L17.0875 28.165L16.9492 28.1905L16.8126 28.2123L16.6773 28.2306L16.5435 28.2453L16.4112 28.2565L16.2804 28.2641L16.151 28.2681L16.0231 28.2686L15.8967 28.2655L15.7718 28.2589L15.6483 28.2486L15.5263 28.2348L15.4057 28.2175L15.2866 28.1966L15.169 28.1721L15.0528 28.1441L14.9382 28.1125L14.825 28.0773L14.7132 28.0386L14.603 27.9963L14.4942 27.9505L14.3869 27.9011L14.281 27.848L14.1766 27.7915L14.0736 27.7315L13.9722 27.6677L13.8722 27.6005L13.7737 27.5298L13.6766 27.4554L13.5818 27.3781L13.49 27.2983L10.4549 24.304L10.4177 24.3413L10.3365 24.4196L10.2539 24.4959L10.17 24.5703L10.0848 24.6429L9.9982 24.7136L9.9103 24.7824L9.82109 24.8494L9.73063 24.9145L9.63869 24.9777L9.54551 25.039L9.45102 25.0985L9.3552 25.1561L9.25798 25.2118L9.15952 25.2656L9.05967 25.3176L8.95849 25.3677L8.856 25.4159L8.75226 25.4623L8.64713 25.5068L8.54059 25.5494L8.43282 25.5901L8.32372 25.629L8.21331 25.666L8.1015 25.701L7.98844 25.7343L7.87399 25.7656L5.99786 26.2615L6.00694 30.888L3.29687 31.6043L0.00980376 28.3614L2.71987 27.6451L2.71079 23.0187L4.58692 22.5227L4.69663 22.4927L3.4031 21.2165L3.2947 21.2452L0.00762939 18.0023L2.73501 17.2813L4.31592 16.8634L4.41244 16.8396L4.50655 16.8199L4.59833 16.8042L4.6877 16.7926L4.77467 16.7851L4.85931 16.7818L4.94146 16.7824L5.02128 16.7871L5.09877 16.7959L5.17386 16.8088L5.24654 16.8257L5.31681 16.8468L5.38475 16.8719L5.45021 16.9011L5.51341 16.9344L5.57413 16.9717L5.63175 17.0127L5.68556 17.0573ZM58.4025 27.2203L59.6214 28.4227L59.5324 28.5748L59.4423 28.7218L59.3498 28.8656L59.2549 29.006L59.1576 29.1432L59.0577 29.2771L58.9555 29.4077L58.8507 29.5351L58.7435 29.6593L58.6338 29.7802L58.5218 29.8978L58.4073 30.0121L58.2902 30.1232L58.1708 30.2311L58.0489 30.3356L57.9246 30.4369L57.7979 30.5349L57.6686 30.6297L57.5369 30.7212L57.4028 30.8094L57.2662 30.8944L57.1272 30.9762L56.9857 31.0546L56.8418 31.1298L56.6954 31.2017L56.5466 31.2704L56.3953 31.3358L56.2416 31.398L56.0854 31.4568L55.9268 31.5124L55.7657 31.5648L55.6021 31.6139L55.4362 31.6597L55.2916 31.6964L55.1484 31.7296L55.0069 31.7591L54.8669 31.7853L54.7286 31.8078L54.5918 31.8268L54.4566 31.8422L54.323 31.8541L54.191 31.8625L54.0605 31.8673L53.9316 31.8686L53.8044 31.8664L53.6787 31.8606L53.5546 31.8513L53.432 31.8384L53.3111 31.8219L53.1918 31.802L53.074 31.7785L52.9578 31.7515L52.8432 31.7209L52.7302 31.6868L52.6188 31.6492L52.5089 31.608L52.4006 31.5633L52.294 31.515L52.1889 31.4632L52.0854 31.4078L51.9834 31.349L51.8831 31.2866L51.7844 31.2206L51.6871 31.1511L51.5916 31.0781L51.4982 31.002L51.4079 30.9235L51.3205 30.8425L51.2361 30.759L49.6949 29.2385L49.6664 29.3472L49.6263 29.4883L49.583 29.6287L49.5368 29.7683L49.4876 29.9071L49.4354 30.0452L49.3801 30.1824L49.3218 30.3189L49.2606 30.4547L49.1963 30.5896L49.129 30.7239L49.0587 30.8573L48.9854 30.99L48.9091 31.1219L48.8298 31.253L48.7475 31.3834L48.6621 31.513L48.5738 31.6419L48.4825 31.7699L48.3881 31.8972L48.2915 32.0228L48.1935 32.1456L48.0939 32.2656L47.9929 32.3828L47.8903 32.4971L47.7863 32.6088L47.6808 32.7177L47.5738 32.8237L47.4654 32.927L47.3555 33.0275L47.2441 33.1252L47.1311 33.2202L47.0167 33.3122L46.9008 33.4016L46.7834 33.4882L46.6646 33.572L46.5443 33.653L46.4225 33.7313L46.2992 33.8067L46.1745 33.8794L46.0482 33.9493L45.9204 34.0164L45.7912 34.0807L45.6605 34.1422L45.5283 34.201L45.3946 34.257L45.2594 34.3101L45.1228 34.3605L44.9846 34.4082L44.845 34.453L44.7039 34.4951L44.5614 34.5344L44.4188 34.5704L44.2777 34.603L44.1381 34.632L43.9998 34.6574L43.8632 34.6793L43.7279 34.6975L43.5941 34.7123L43.4618 34.7234L43.331 34.7311L43.2016 34.7351L43.0737 34.7356L42.9473 34.7325L42.8224 34.7258L42.6989 34.7156L42.5769 34.7018L42.4564 34.6845L42.3372 34.6636L42.2196 34.6391L42.1034 34.611L41.9888 34.5795L41.8756 34.5443L41.7638 34.5056L41.6536 34.4633L41.5448 34.4175L41.4375 34.368L41.3315 34.315L41.2272 34.2585L41.1242 34.1984L41.0228 34.1347L40.9228 34.0675L40.8243 33.9967L40.7272 33.9223L40.6324 33.845L40.5406 33.7653L40.4519 33.6833L37.1648 30.4404L37.2536 30.5225L37.3453 30.6021L37.4401 30.6794L37.5372 30.7538L37.6357 30.8246L37.7358 30.8918L37.8372 30.9555L37.9401 31.0156L38.0445 31.0722L38.1504 31.1251L38.2577 31.1746L38.3665 31.2204L38.4767 31.2627L38.5886 31.3014L38.7017 31.3366L38.8164 31.3682L38.9325 31.3962L39.0502 31.4207L39.1693 31.4416L39.2898 31.4589L39.4118 31.4727L39.5353 31.4829L39.6603 31.4896L39.7867 31.4927L39.9146 31.4922L40.0439 31.4882L40.1747 31.4805L40.3071 31.4694L40.4409 31.4546L40.5761 31.4364L40.7128 31.4145L40.851 31.3891L40.9906 31.3601L41.1318 31.3276L41.2743 31.2915L41.4169 31.2522L41.558 31.2101L41.6976 31.1653L41.8357 31.1177L41.9724 31.0673L42.0328 31.0435L39.1529 28.2023L39.0677 28.1138L38.9888 28.0183L38.9162 27.9157L38.8497 27.806L38.7895 27.6894L38.7355 27.5657L38.6879 27.435L38.6464 27.2973L38.6356 27.2529L36.2398 24.8893L38.0001 26.2975L38.5606 26.8505L38.5594 26.8419L38.5428 26.676L38.5325 26.5031L38.5285 26.3232L38.5299 26.2317L38.5328 26.141L38.5374 26.0513L38.5435 25.9625L38.5512 25.8746L38.5605 25.7876L38.5713 25.7015L38.5837 25.6163L38.5977 25.5321L38.6133 25.4487L38.6305 25.3663L38.6492 25.2848L38.6695 25.2042L38.6914 25.1245L38.7148 25.0457L38.7398 24.9678L38.7664 24.8908L38.7946 24.8147L38.8243 24.7396L38.8557 24.6654L38.8885 24.5921L38.923 24.5196L38.959 24.4481L38.9967 24.3775L39.0359 24.3079L39.0767 24.2391L39.119 24.1712L39.1629 24.1043L39.2084 24.0382L39.2555 23.9731L39.3041 23.9088L39.3543 23.8456L39.4575 23.7226L39.563 23.6053L39.6708 23.4935L39.7809 23.3873L39.8933 23.2866L40.008 23.1915L40.1251 23.1019L40.2444 23.0179L40.366 22.9394L40.49 22.8666L40.6163 22.7993L40.7448 22.7375L40.8757 22.6813L41.0089 22.6307L41.1444 22.5856L41.2822 22.5461L41.4159 22.5138L41.5476 22.4883L41.6773 22.4694L41.805 22.4572L41.9308 22.4518L42.0547 22.453L42.1765 22.4609L42.2964 22.4755L42.4144 22.4968L42.5303 22.5247L42.6443 22.5594L42.7564 22.6007L42.8664 22.6488L42.9745 22.7035L43.0806 22.7649L43.1848 22.833L43.2848 22.908L43.3782 22.99L46.4114 25.9824L46.4166 25.9625L46.4508 25.8198L46.4819 25.6764L46.5101 25.5324L46.5354 25.3874L46.5575 25.2417L46.5767 25.0953L46.5928 24.948L46.6059 24.8L46.616 24.6513L46.6232 24.5018L46.6273 24.3515L46.6284 24.2004L46.6273 24.0488L46.6232 23.8996L46.616 23.7528L46.6059 23.6084L46.5928 23.4663L46.5767 23.3267L46.5575 23.1895L46.5354 23.0546L46.5102 22.9221L46.4821 22.7921L46.4509 22.6644L46.4167 22.5391L46.3795 22.4162L46.3394 22.2957L46.2962 22.1776L46.25 22.0618L46.2008 21.9484L46.1486 21.8375L46.0934 21.729L46.0352 21.6228L45.974 21.519L45.9097 21.4176L45.8425 21.3186L45.7723 21.222L45.699 21.1278L45.6228 21.036L45.5436 20.9466L45.4613 20.8595L48.7484 24.1023L48.8306 24.1894L48.9099 24.2788L48.9861 24.3707L49.0594 24.4649L49.1296 24.5615L49.1968 24.6605L49.261 24.7619L49.3223 24.8657L49.3805 24.9719L49.4357 25.0804L49.4878 25.1913L49.5371 25.3047L49.5833 25.4204L49.6264 25.5386L49.6666 25.6591L49.7038 25.782L49.7379 25.9073L49.7692 26.0349L49.7973 26.165L49.8224 26.2975L49.8446 26.4324L49.8637 26.5696L49.8799 26.7092L49.893 26.8513L49.9031 26.9957L49.9102 27.1425L49.9144 27.2917L49.9155 27.4433L49.9144 27.5943L49.9102 27.7446L49.9031 27.8942L49.893 28.0429L49.8799 28.1909L49.8637 28.3381L49.8446 28.4846L49.8353 28.5453L49.9047 28.5591L50.0241 28.5791L50.145 28.5955L50.2675 28.6084L50.3917 28.6177L50.5173 28.6235L50.6446 28.6257L50.7735 28.6244L50.9039 28.6196L51.0359 28.6112L51.1695 28.5994L51.3047 28.5839L51.4415 28.5649L51.5798 28.5424L51.7198 28.5162L51.8613 28.4867L52.0045 28.4535L52.1492 28.4168L52.3151 28.371L52.4786 28.3219L52.6397 28.2695L52.7984 28.2139L52.9467 28.158L50.0445 25.2947L49.9585 25.2069L49.879 25.1126L49.806 25.0118L49.7395 24.9046L49.6795 24.791L49.6259 24.6709L49.5787 24.5443L49.5381 24.4114L49.5038 24.2719L49.4761 24.1261L49.4548 23.9738L49.4401 23.815L49.4318 23.6499L49.4299 23.4782L49.43 23.3859L49.4316 23.2945L49.4349 23.204L49.4399 23.1146L49.4464 23.0259L49.4545 22.9383L49.4642 22.8516L49.4756 22.7659L49.4886 22.681L49.5032 22.5971L49.5194 22.5142L49.5373 22.4321L49.5567 22.3511L49.5778 22.2709L49.6005 22.1917L49.6248 22.1134L49.6507 22.036L49.6783 21.9596L49.7075 21.8841L49.7383 21.8096L49.7706 21.7359L49.8046 21.6633L49.8403 21.5916L49.8776 21.5208L49.9165 21.4509L49.9569 21.382L49.999 21.3139L50.0427 21.2469L50.0881 21.1807L50.135 21.1155L50.1836 21.0514L50.2338 20.988L50.3368 20.8651L50.4419 20.7479L50.5491 20.6362L50.6582 20.5303L50.7693 20.43L50.8826 20.3352L50.9979 20.2462L51.1152 20.1627L51.2345 20.0849L51.3559 20.0127L51.4793 19.9461L51.6048 19.8852L51.7323 19.8299L51.8619 19.7802L51.9934 19.7362L52.127 19.6978L52.2957 19.657L52.459 19.6252L52.6167 19.6026L52.7689 19.5889L52.9155 19.5844L53.0565 19.5889L53.1921 19.6026L53.3222 19.6252L53.4466 19.657L53.5655 19.6978L53.679 19.7477L53.7868 19.8066L53.8892 19.8747L53.986 19.9517L54.0772 20.0379L54.2902 20.248L56.0961 17.8587L59.3831 21.1016L58.3554 22.4614L60.1875 24.2688L60.1905 26.7477L58.4025 27.2203ZM53.0172 28.1297L53.1083 28.0929L53.2595 28.0275L53.4084 27.9588L53.5547 27.8869L53.6986 27.8117L53.8401 27.7333L53.9792 27.6516L54.1157 27.5665L54.2498 27.4783L54.3316 27.4215L52.7812 25.892L52.7757 25.9239L52.7627 26.0087L52.7513 26.0945L52.7415 26.1812L52.7335 26.2688L52.7269 26.3574L52.722 26.4469L52.7187 26.5374L52.7171 26.6288L52.717 26.7211L52.7188 26.8927L52.7272 27.0579L52.7419 27.2167L52.7632 27.369L52.7909 27.5148L52.8251 27.6542L52.8658 27.7872L52.913 27.9138L52.9665 28.0339L53.0172 28.1297ZM55.8898 25.873L55.9679 25.7631L56.0628 25.6227L56.1552 25.479L56.2201 25.3731L54.8709 24.0421L56.9035 23.5048L56.9028 22.9627L56.8526 22.9407L56.7337 22.8998L56.6092 22.8681L56.4792 22.8455L56.3436 22.8318L56.2025 22.8273L56.0559 22.8318L55.9038 22.8455L55.7461 22.8681L55.5828 22.8998L55.4141 22.9407L55.2805 22.979L55.1489 23.0231L55.0193 23.0728L54.8918 23.1281L54.7663 23.189L54.643 23.2556L54.5216 23.3277L54.4023 23.4056L54.2849 23.4891L54.1696 23.5781L54.0564 23.6728L53.9452 23.7732L53.8361 23.8791L53.729 23.9907L53.6239 24.108L53.5209 24.2309L53.4707 24.2942L53.4221 24.3584L53.3751 24.4236L53.3636 24.4405L54.2108 24.2166L55.8898 25.873ZM42.1168 31.0102L42.2412 30.9581L42.3734 30.8993L42.5041 30.8378L42.6333 30.7735L42.7611 30.7064L42.8874 30.6365L43.0122 30.5638L43.1354 30.4884L43.2572 30.4102L43.3776 30.3291L43.4964 30.2453L43.6138 30.1588L43.7296 30.0694L43.844 29.9773L43.957 29.8823L44.0684 29.7846L44.1784 29.6841L44.2868 29.5808L44.3938 29.4748L44.4993 29.3659L44.6032 29.2542L44.7058 29.1399L44.8068 29.0227L44.9064 28.9027L45.0044 28.7799L45.101 28.6544L45.1954 28.5271L45.2868 28.399L45.3751 28.2701L45.4604 28.1405L45.5427 28.0101L45.6221 27.879L45.6983 27.7471L45.7716 27.6144L45.842 27.481L45.9092 27.3468L45.9735 27.2118L46.0348 27.0761L46.093 26.9395L46.1483 26.8023L46.2005 26.6642L46.2498 26.5254L46.296 26.3858L46.3392 26.2455L46.3794 26.1043L46.3992 26.0284L46.3677 26.0078L46.2616 25.9464L46.1535 25.8917L46.0435 25.8436L45.9314 25.8023L45.8173 25.7676L45.7014 25.7396L45.5835 25.7183L45.4636 25.7038L45.3418 25.6959L45.2179 25.6947L45.0921 25.7001L44.9644 25.7123L44.8346 25.7311L44.7029 25.7567L44.5693 25.789L44.4315 25.8285L44.296 25.8735L44.1627 25.9242L44.0319 25.9804L43.9033 26.0421L43.7771 26.1095L43.6531 26.1823L43.5315 26.2608L43.4121 26.3448L43.2951 26.4344L43.1803 26.5295L43.068 26.6301L42.9579 26.7364L42.85 26.8482L42.7446 26.9655L42.6414 27.0885L42.5912 27.1517L42.5425 27.216L42.4955 27.2811L42.45 27.3471L42.406 27.4141L42.3637 27.482L42.323 27.5508L42.2837 27.6204L42.2461 27.691L42.2101 27.7625L42.1756 27.8349L42.1427 27.9083L42.1114 27.9825L42.0816 28.0576L42.0534 28.1337L42.0269 28.2107L42.0019 28.2886L41.9784 28.3673L41.9565 28.4471L41.9363 28.5277L41.9176 28.6092L41.9004 28.6916L41.8848 28.7749L41.8708 28.8592L41.8584 28.9444L41.8475 29.0305L41.8383 29.1175L41.8306 29.2054L41.8245 29.2941L41.8199 29.3839L41.8169 29.4745L41.8155 29.5661L41.8196 29.746L41.8299 29.9189L41.8464 30.0848L41.8692 30.2436L41.8982 30.3954L41.9335 30.5402L41.9749 30.6779L42.0226 30.8086L42.0766 30.9323L42.1168 31.0102ZM33.6935 33.075L31.6377 31.0469L31.6433 23.2148L30.7578 22.3411L30.0148 24.5417L29.0255 24.8033L30.6034 26.36L30.7108 26.4631L30.8103 26.5727L30.9018 26.6887L30.9854 26.8112L31.0611 26.9402L31.129 27.0756L31.1889 27.2175L31.2408 27.3659L31.2849 27.5208L31.321 27.6821L31.3493 27.8499L31.3696 28.0242L31.382 28.2049L31.3865 28.3921L31.3849 28.5133L31.3793 28.6339L31.3696 28.7539L31.356 28.8731L31.3383 28.9917L31.3165 29.1097L31.2907 29.227L31.2609 29.3437L31.2271 29.4597L31.1892 29.575L31.1473 29.6897L31.1014 29.8038L31.0514 29.9172L30.9974 30.0299L30.9393 30.142L30.8773 30.2534L30.8122 30.3628L30.7452 30.4691L30.6762 30.5721L30.6052 30.6719L30.5323 30.7686L30.4574 30.862L30.3805 30.9522L30.3017 31.0391L30.2209 31.1229L30.1382 31.2035L30.1019 31.2367L30.5243 31.6535L31.1087 31.499L32.9149 33.2808L33.6935 33.075ZM28.4508 30.4851L26.5462 28.6062L25.6965 28.8309L25.6902 30.6833L27.946 32.9087L27.9705 32.8625L28.0146 32.7753L28.0567 32.6875L28.0967 32.5992L28.1347 32.5103L28.1705 32.4209L28.2044 32.331L28.2362 32.2406L28.266 32.1496L28.2936 32.058L28.3192 31.966L28.3428 31.8734L28.3643 31.7803L28.3838 31.6867L28.4012 31.5925L28.4165 31.4978L28.4299 31.4025L28.4411 31.3067L28.4503 31.2104L28.4574 31.1136L28.4625 31.0162L28.4655 30.9183L28.4665 30.8198L28.4632 30.673L28.455 30.5306L28.4508 30.4851ZM27.6033 33.4596L27.5849 33.4628L27.4911 33.4828L27.3948 33.5067L25.6922 33.9567L25.6919 35.0833L25.7565 35.0516L25.8483 35.0042L25.9388 34.9551L26.028 34.9044L26.116 34.8521L26.2026 34.798L26.288 34.7423L26.3722 34.6849L26.4551 34.6258L26.5366 34.5651L26.617 34.5026L26.696 34.4386L26.7737 34.3728L26.8502 34.3054L26.9255 34.2363L26.9994 34.1655L27.0721 34.0931L27.1435 34.0189L27.2137 33.9431L27.2825 33.8656L27.3501 33.7865L27.4164 33.7057L27.4811 33.6238L27.5437 33.5413L27.6033 33.4596ZM28.097 25.0487L27.9823 25.079L25.6363 22.7645L25.6371 25.6989L25.5298 25.7272L27.2911 27.4649L27.3181 27.429L27.3891 27.3292L27.4581 27.2262L27.5251 27.1199L27.5902 27.0105L27.6522 26.8991L27.7103 26.787L27.7643 26.6743L27.8143 26.5609L27.8603 26.4468L27.9021 26.3322L27.94 26.2168L27.9739 26.1008L28.0037 25.9842L28.0294 25.8668L28.0512 25.7488L28.0689 25.6303L28.0826 25.511L28.0922 25.391L28.0979 25.2705L28.0994 25.1492L28.097 25.0487ZM22.4342 25.5814L21.7213 24.8779L21.6969 24.9164L21.6116 25.046L21.5233 25.1749L21.4319 25.3029L21.3376 25.4302L21.241 25.5558L21.1429 25.6786L21.0434 25.7986L20.9423 25.9158L20.8719 25.9943L22.4342 25.5814ZM68.7074 1.31622L71.9945 4.55911L72.0707 4.65095L72.144 4.74517L72.2142 4.84177L72.2815 4.94074L72.3457 5.04216L72.4069 5.14596L72.4651 5.25213L72.5203 5.36067L72.5725 5.47159L72.6217 5.58496L72.6678 5.70071L72.711 5.81883L72.7512 5.93933L72.7884 6.06227L72.8226 6.18752L72.8537 6.31521L72.8819 6.44528L72.907 6.57773L72.9292 6.71263L72.9483 6.8499L72.9645 6.98947L72.9776 7.13157L72.9877 7.27596L72.9948 7.42273L72.9989 7.57195L73 7.72355L72.9989 7.87461L72.9948 8.0249L72.9877 8.17443L72.9776 8.32319L72.9645 8.47119L72.9483 8.61842L72.9291 8.7648L72.907 8.9105L72.8818 9.05543L72.8537 9.1996L72.8225 9.343L72.7883 9.48563L72.7511 9.6275L72.7109 9.7686L72.6677 9.90893L72.6215 10.0485L72.5722 10.1873L72.52 10.3253L72.4647 10.4626L72.4065 10.5991L72.3452 10.7349L72.2809 10.8698L72.2137 11.004L72.1433 11.1375L72.07 11.2702L71.9938 11.4021L71.9144 11.5332L71.8321 11.6637L71.7468 11.7933L71.6585 11.9221L71.5671 12.0502L71.4728 12.1775L71.3762 12.3031L71.2781 12.4259L71.1786 12.5458L71.0775 12.663L70.975 12.7774L70.8709 12.8891L70.7655 12.9979L70.6585 13.1039L70.55 13.2073L70.44 13.3078L70.3286 13.4054L70.2157 13.5004L70.1013 13.5925L69.9854 13.6819L69.8681 13.7685L69.7492 13.8523L69.6289 13.9333L69.5071 14.0115L69.3838 14.087L69.259 14.1597L69.1328 14.2295L69.005 14.2966L68.8758 14.361L68.7451 14.4225L68.6129 14.4813L68.4792 14.5372L68.3441 14.5904L68.2074 14.6408L68.0693 14.6885L67.9297 14.7333L67.7886 14.7753L67.646 14.8146L67.5035 14.8507L67.3623 14.8833L67.2227 14.9123L67.0845 14.9376L66.9478 14.9596L66.8126 14.9778L66.6788 14.9926L66.5465 15.0037L66.4156 15.0113L66.2863 15.0153L66.1584 15.0159L66.0319 15.0127L65.907 15.0061L65.7835 14.9959L65.6614 14.9821L65.5409 14.9648L65.4218 14.9439L65.3042 14.9193L65.188 14.8913L65.0734 14.8597L64.9602 14.8246L64.8485 14.7858L64.7381 14.7435L64.6293 14.6977L64.522 14.6482L64.4161 14.5953L64.3118 14.5388L64.2088 14.4786L64.1074 14.415L64.0074 14.3477L63.9088 14.277L63.8118 14.2026L63.717 14.1253L63.6252 14.0456L63.5364 13.9636L63.4507 13.8792L63.3681 13.7924L61.7853 12.2308L61.7879 16.1428L59.1821 16.8316L55.895 13.5888L58.5008 12.8999L58.4997 11.1788L55.9551 8.66851L52.4306 3.5753L55.7177 6.81818L58.4994 10.838L58.4934 1.9727L61.7804 5.21559L61.7806 5.38917L61.7994 5.32597L61.8244 5.24807L61.851 5.17108L61.8792 5.09502L61.9089 5.01987L61.9402 4.94564L61.9732 4.87233L62.0076 4.79987L62.0437 4.7284L62.0812 4.65777L62.1205 4.58814L62.1612 4.51935L62.2035 4.45148L62.2475 4.38453L62.293 4.3185L62.34 4.25339L62.3887 4.18912L62.4389 4.12584L62.5421 4.0029L62.6475 3.88554L62.7554 3.77378L62.8655 3.66753L62.9779 3.56688L63.0926 3.47174L63.2096 3.38219L63.329 3.29815L63.4506 3.21971L63.5746 3.14687L63.7008 3.07953L63.8294 3.01779L63.9603 2.96156L64.0935 2.91093L64.2291 2.86589L64.3669 2.82636L64.5005 2.79411L64.6322 2.76853L64.7619 2.74968L64.8896 2.7375L65.0154 2.73206L65.1393 2.73329L65.2611 2.74118L65.381 2.75574L65.4989 2.77703L65.6148 2.80499L65.7289 2.83969L65.841 2.88098L65.951 2.92909L66.0591 2.98378L66.1652 3.04521L66.2694 3.11331L66.3694 3.18831L66.4628 3.27027L66.5497 3.35936L69.4953 6.26535L69.5012 6.24275L69.5354 6.10011L69.5666 5.95671L69.5948 5.81255L69.6199 5.66762L69.6421 5.52192L69.6612 5.37553L69.6774 5.2283L69.6905 5.08031L69.7006 4.93155L69.7078 4.78202L69.7119 4.63172L69.713 4.48067L69.7119 4.32907L69.7078 4.17985L69.7006 4.03308L69.6905 3.88868L69.6774 3.74658L69.6612 3.60702L69.6421 3.46974L69.6199 3.33485L69.5949 3.2024L69.5667 3.07233L69.5355 2.94464L69.5014 2.81939L69.4642 2.69644L69.424 2.57595L69.3808 2.45783L69.3347 2.34208L69.2854 2.22871L69.2332 2.11779L69.178 2.00924L69.1198 1.90307L69.0586 1.79928L68.9944 1.69786L68.9272 1.59889L68.8569 1.50229L68.7837 1.40807L68.7074 1.31622ZM61.7848 11.6164L61.7863 11.6169L61.9009 11.6484L62.0171 11.6765L62.1348 11.701L62.2539 11.7219L62.3744 11.7392L62.4964 11.753L62.6199 11.7632L62.7448 11.7698L62.8713 11.773L62.9992 11.7724L63.1286 11.7685L63.2594 11.7608L63.3917 11.7497L63.5255 11.7349L63.6607 11.7167L63.7974 11.6948L63.9356 11.6694L64.0753 11.6404L64.2164 11.6078L64.359 11.5717L64.5015 11.5324L64.6426 11.4904L64.7822 11.4456L64.9204 11.3979L65.057 11.3475L65.1207 11.3225L62.1524 8.39405L62.0734 8.29852L62.0008 8.19595L61.9343 8.08626L61.8742 7.96967L61.8202 7.84596L61.7821 7.7417L61.7848 11.6164ZM65.2015 11.2905L65.3258 11.2384L65.458 11.1796L65.5888 11.1181L65.718 11.0538L65.8457 10.9867L65.972 10.9168L66.0967 10.8441L66.22 10.7686L66.3418 10.6904L66.4621 10.6094L66.581 10.5256L66.6983 10.439L66.8142 10.3496L66.9287 10.2576L67.0416 10.1626L67.153 10.0649L67.2629 9.96439L67.3714 9.86106L67.4784 9.75504L67.5838 9.64619L67.6879 9.5345L67.7904 9.42014L67.8915 9.30293L67.991 9.18297L68.0891 9.06018L68.1857 8.93463L68.28 8.80732L68.3714 8.67924L68.4597 8.55039L68.545 8.42078L68.6274 8.29033L68.7067 8.15918L68.783 8.02728L68.8563 7.8946L68.9266 7.76116L68.9939 7.62695L69.0581 7.49198L69.1194 7.35624L69.1777 7.21973L69.2329 7.08246L69.2851 6.94442L69.3344 6.80562L69.3806 6.66605L69.4238 6.52572L69.464 6.38462L69.4839 6.30878L69.4523 6.2881L69.3461 6.22666L69.2381 6.17197L69.128 6.12386L69.016 6.08257L68.9019 6.04787L68.786 6.01991L68.668 5.99862L68.5482 5.98406L68.4263 5.97617L68.3025 5.97495L68.1767 5.98039L68.049 5.99256L67.9193 6.01141L67.7876 6.03699L67.654 6.06924L67.5161 6.10877L67.3806 6.15381L67.2474 6.20445L67.1165 6.26067L66.9879 6.32241L66.8616 6.38975L66.7377 6.4626L66.616 6.54104L66.4967 6.62507L66.3797 6.71462L66.2649 6.80976L66.1526 6.91041L66.0425 7.01666L65.9346 7.12842L65.8292 7.24578L65.726 7.36873L65.6757 7.432L65.6271 7.49627L65.5801 7.56138L65.5346 7.62741L65.4906 7.69436L65.4483 7.76223L65.4075 7.83102L65.3683 7.90065L65.3307 7.97128L65.2947 8.04275L65.2602 8.11521L65.2273 8.18852L65.196 8.26275L65.1663 8.3379L65.1381 8.41396L65.1115 8.49095L65.0865 8.56885L65.063 8.6476L65.0411 8.72734L65.0208 8.80793L65.0021 8.88944L64.985 8.97186L64.9694 9.0552L64.9554 9.13946L64.943 9.22465L64.9321 9.31075L64.9229 9.39777L64.9152 9.48563L64.909 9.57441L64.9045 9.66419L64.9015 9.75481L64.9001 9.84635L64.9042 10.0263L64.9145 10.1992L64.931 10.365L64.9538 10.5238L64.9828 10.6756L65.0181 10.8204L65.0596 10.9582L65.1073 11.0888L65.1612 11.2126L65.2015 11.2905ZM49.1145 14.68L48.941 14.9099L47.1225 13.1158L46.5958 14.8114L47.5835 15.7858L49.3633 15.3154L49.1145 14.68ZM41.4938 17.3956L41.5652 17.1647L41.5076 17.2143L41.4332 17.2755L41.3576 17.3352L41.281 17.3933L41.2032 17.4497L41.1503 17.4864L41.4938 17.3956ZM38.4677 13.7476L38.234 13.8094L38.2339 13.9599L38.2937 13.9084L38.3659 13.8438L38.4368 13.7776L38.4677 13.7476ZM36.8041 14.7901L36.3222 14.3147L35.6803 14.4844L34.859 13.6742L34.8605 19.149L34.9272 19.1314L34.9319 15.3095L36.3216 14.9422L36.4199 14.9152L36.517 14.8866L36.613 14.8564L36.7078 14.8246L36.8015 14.7911L36.8041 14.7901ZM31.5745 20.0176V19.9219L31.539 20.027L31.5745 20.0176ZM19.3487 19.5615L19.3171 19.5408L19.211 19.4794L19.1029 19.4247L18.9929 19.3767L18.8808 19.3353L18.7668 19.3006L18.6508 19.2726L18.5329 19.2514L18.413 19.2368L18.2912 19.2289L18.1673 19.2277L18.0415 19.2332L17.9138 19.2454L17.7841 19.2642L17.6524 19.2897L17.5188 19.322L17.381 19.3615L17.2454 19.4065L17.1122 19.4573L16.9813 19.5134L16.8527 19.5752L16.7265 19.6425L16.6025 19.7154L16.4809 19.7938L16.3615 19.8778L16.2445 19.9674L16.1297 20.0625L16.0174 20.1632L15.9073 20.2695L15.7994 20.3812L15.694 20.4986L15.5908 20.6215L15.5406 20.6848L15.4919 20.7491L15.4449 20.8142L15.3994 20.8802L15.3554 20.9472L15.3131 21.015L15.2724 21.0838L15.2331 21.1535L15.1956 21.224L15.1595 21.2956L15.1251 21.368L15.0921 21.4413L15.0608 21.5155L15.0311 21.5906L15.0029 21.6667L14.9763 21.7437L14.9513 21.8216L14.9278 21.9003L14.9059 21.9801L14.8857 22.0607L14.867 22.1422L14.8498 22.2247L14.8342 22.308L14.8202 22.3923L14.8078 22.4775L14.7969 22.5635L14.7877 22.6505L14.78 22.7384L14.7739 22.8272L14.7693 22.917L14.7663 23.0076L14.7649 23.0992L14.769 23.2791L14.7793 23.452L14.7958 23.6178L14.8187 23.7766L14.8476 23.9285L14.8829 24.0732L14.9244 24.211L14.9721 24.3417L15.0261 24.4654L15.0663 24.5433L15.1906 24.4912L15.3228 24.4324L15.4535 24.3709L15.5827 24.3066L15.7105 24.2395L15.8368 24.1696L15.9616 24.0969L16.0849 24.0215L16.2066 23.9432L16.327 23.8622L16.4459 23.7784L16.5632 23.6918L16.679 23.6024L16.7935 23.5103L16.9064 23.4154L17.0178 23.3176L17.1278 23.2171L17.2362 23.1139L17.3432 23.0078L17.4487 22.8989L17.5527 22.7873L17.6552 22.6729L17.7563 22.5557L17.8559 22.4357L17.9539 22.3129L18.0505 22.1874L18.1449 22.0601L18.2363 21.932L18.3245 21.8031L18.4099 21.6735L18.4922 21.5431L18.5715 21.412L18.6478 21.2801L18.7211 21.1474L18.7914 21.014L18.8587 20.8798L18.923 20.7448L18.9842 20.6091L19.0425 20.4725L19.0978 20.3353L19.1499 20.1972L19.1992 20.0584L19.2454 19.9188L19.2886 19.7785L19.3288 19.6374L19.3487 19.5615ZM14.9823 24.5766L12.1023 21.7353L12.0172 21.6469L11.9472 21.5621L11.9275 21.6594L11.9035 21.7662L11.8773 21.8723L11.8488 21.9776L11.818 22.0821L11.785 22.1859L11.7497 22.2889L11.7122 22.3911L11.6724 22.4926L11.6303 22.5933L11.5859 22.6932L11.5394 22.7924L11.4904 22.8908L11.4393 22.9885L11.3859 23.0854L11.3303 23.1814L11.2723 23.2768L11.2121 23.3714L11.1497 23.4652L11.085 23.5583L11.018 23.6505L10.9488 23.7421L10.8773 23.8329L10.804 23.9223L10.7294 24.0099L10.6535 24.0955L10.5762 24.1793L10.4976 24.2613L10.4784 24.2806L10.4866 24.2869L10.5851 24.3577L10.6852 24.4248L10.7866 24.4886L10.8895 24.5486L10.9939 24.6052L11.0998 24.6582L11.2071 24.7076L11.3159 24.7534L11.4261 24.7958L11.538 24.8344L11.6511 24.8696L11.7658 24.9012L11.8819 24.9292L11.9996 24.9537L12.1186 24.9746L12.2392 24.9919L12.3612 25.0057L12.4847 25.016L12.6097 25.0226L12.7361 25.0257L12.864 25.0253L12.9933 25.0212L13.1241 25.0136L13.2565 25.0024L13.3902 24.9877L13.5255 24.9694L13.6622 24.9476L13.8004 24.9221L13.94 24.8932L14.0812 24.8606L14.2237 24.8246L14.3663 24.7853L14.5074 24.7432L14.647 24.6984L14.7851 24.6507L14.9218 24.6003L14.9823 24.5766ZM7.98479 20.0347L7.97477 20.0355L7.8854 20.0471L7.79362 20.0628L7.69951 20.0825L7.60299 20.1063L6.02208 20.5242L6.01983 21.9409L6.06813 21.9132L6.16394 21.8556L6.25844 21.7962L6.35162 21.7348L6.44356 21.6716L6.53402 21.6065L6.62323 21.5395L6.71113 21.4708L6.79771 21.4L6.88297 21.3274L6.96682 21.253L7.04944 21.1767L7.13066 21.0985L7.21056 21.0184L7.28914 20.9365L7.3664 20.8526L7.44234 20.767L7.51696 20.6795L7.59026 20.59L7.66177 20.4992L7.73096 20.4077L7.79797 20.3154L7.86265 20.2224L7.92508 20.1285L7.98479 20.0347Z" fill="black"/>
<path d="M4.5862 14.2939C5.81381 13.9693 6.81493 14.0904 7.58939 14.6572C8.364 15.2239 8.75279 16.1069 8.75581 17.3062C8.75341 18.5314 8.36493 19.6259 7.59024 20.59C6.81562 21.5539 5.81451 22.1982 4.5869 22.5227L2.71077 23.0186L2.71985 27.6451L0.00978372 28.3614L0.00885103 20.8857L2.73499 17.2813L2.72979 20.5523L4.31062 20.1343C4.8318 19.9966 5.25203 19.7386 5.57132 19.3603C5.89053 18.982 6.0445 18.5433 6.03301 18.0442C6.04481 17.5391 5.89185 17.1815 5.57411 16.9717C5.25645 16.7617 4.837 16.7256 4.3159 16.8634L0.00760935 18.0023L0 15.5062L4.5862 14.2939ZM14.2261 13.4539C15.7548 13.0499 17.03 13.2546 18.0517 14.0683C19.0733 14.8819 19.582 16.1037 19.5778 17.7334C19.5821 19.3487 19.073 20.8334 18.0505 22.1874C17.028 23.5415 15.7524 24.4205 14.2237 24.8245C12.695 25.2286 11.417 25.0246 10.3895 24.2125C9.36209 23.4004 8.85202 22.1851 8.85932 20.5668L8.85217 20.4034L9.0039 20.3448L10.9495 19.8305L9.18924 18.4223L9.21805 18.3228C9.60513 17.1429 10.2529 16.1114 11.1612 15.2284C12.0695 14.3454 13.0912 13.7539 14.2261 13.4539ZM14.2317 16.0791C13.4904 16.275 12.8479 16.7082 12.3037 17.3786C11.7597 18.049 11.4844 18.8748 11.4778 19.8563C11.483 20.8346 11.754 21.513 12.2913 21.8913C12.8284 22.2698 13.4735 22.3595 14.2263 22.1605C14.9559 21.9676 15.5935 21.5388 16.1391 20.8742C16.6848 20.2096 16.955 19.3881 16.95 18.4097C16.9565 17.4284 16.6846 16.7471 16.1342 16.366C15.5839 15.9849 14.9496 15.8893 14.2317 16.0791ZM25.7384 17.5193L28.2536 9.98469L31.5716 9.10759L31.5744 20.0176L29.0729 20.6789L29.0699 14.361L26.7277 21.2988L24.6952 21.8361L22.3482 16.2113L22.35 22.456L19.9179 23.0989L19.9207 15.8427L21.9706 15.3008L20.5753 12.0143L23.0942 11.3485L25.7384 17.5193ZM36.3095 7.83676C37.375 7.55509 38.2405 7.65697 38.9061 8.14233C39.5716 8.62768 39.9039 9.39393 39.9029 10.4412C39.9018 11.4885 39.5681 12.4308 38.9018 13.2682C38.2356 14.1055 37.3755 14.6636 36.3216 14.9422L34.9319 15.3095L34.9272 19.1314L32.3909 19.8018L32.3867 13.4107L34.4084 10.7088L32.3932 11.2415L32.3835 8.87457L36.3095 7.83676ZM34.9469 10.5665L34.9441 12.9551L36.0906 12.6521C36.4728 12.551 36.7815 12.3623 37.0167 12.0858C37.252 11.8094 37.3709 11.4932 37.3736 11.1374C37.37 10.7587 37.2542 10.4923 37.0262 10.3383C36.7981 10.1843 36.4873 10.1593 36.0935 10.2634L34.9469 10.5665ZM45.654 11.667L47.7212 11.1205L49.3633 15.3154L46.6012 16.0455L45.8655 14.0909L42.2173 15.0552L41.4938 17.3956L38.8185 18.1027L42.7071 6.16407L45.5039 5.4247L47.1599 9.67085L45.654 11.667ZM43.0656 12.3512L45.0633 11.8231L44.0788 9.08944L43.0656 12.3512ZM55.9551 8.66851L55.9571 2.64312L58.4934 1.9727L58.5008 12.8999L55.895 13.5887L55.8591 13.5248L52.0097 8.05822L52.0038 14.6174L49.4848 15.2832L49.4784 7.99272L51.5804 7.43705L49.46 4.36055L52.4306 3.5753L55.9551 8.66851ZM64.3613 0.201116C65.89 -0.202961 67.1652 0.00187431 68.1868 0.815467C69.2085 1.62921 69.7172 2.85094 69.7129 4.48066C69.7173 6.09597 69.2082 7.5806 68.1857 8.93462C67.1632 10.2886 65.8876 11.1677 64.359 11.5717C62.8301 11.9759 61.5521 11.7719 60.5247 10.9597C59.4973 10.1476 58.9873 8.93232 58.9946 7.31395L58.9874 7.15056L59.1391 7.09203L61.0847 6.57772L59.3244 5.16954L59.3532 5.07004C59.7403 3.89013 60.388 2.8586 61.2964 1.97569C62.2047 1.09261 63.2264 0.501168 64.3613 0.201116ZM64.3669 2.82635C63.6256 3.0223 62.983 3.45541 62.4389 4.12584C61.8949 4.79626 61.6195 5.62211 61.613 6.60346C61.6181 7.58175 61.8892 8.26014 62.4265 8.63856C62.9637 9.01705 63.6087 9.10667 64.3615 8.90773C65.0911 8.71485 65.7287 8.28611 66.2743 7.62143C66.8199 6.95675 67.0902 6.13527 67.0852 5.1569C67.0917 4.17555 66.8198 3.4944 66.2694 3.11331C65.719 2.73221 65.0848 2.63653 64.3669 2.82635ZM26.3134 28.3765C26.9066 28.3666 27.4124 28.5728 27.8312 28.9948C28.2499 29.4168 28.4617 30.0252 28.4665 30.8198C28.467 31.8728 28.117 32.8347 27.4164 33.7057C26.7158 34.5766 25.7981 35.1621 24.663 35.4622L19.7642 36.7571L19.7641 29.0792L22.4094 25.588L22.4 28.364L23.8767 27.9737C24.3515 27.8482 24.7307 27.6224 25.0146 27.2963C25.2984 26.9703 25.4382 26.5935 25.4337 26.1661C25.441 25.7356 25.3064 25.4344 25.03 25.2625C24.7538 25.0907 24.3608 25.0721 23.8513 25.2068L19.7689 26.2859L19.7544 23.9018L24.3058 22.6987C25.4755 22.3895 26.3995 22.4667 27.0778 22.9303C27.756 23.3939 28.0966 24.1335 28.0994 25.1492C28.1017 25.7975 27.932 26.418 27.5902 27.0105C27.2484 27.6028 26.8228 28.0582 26.3134 28.3765ZM24.1067 33.2765C24.6278 33.1387 25.0366 32.8959 25.3332 32.5481C25.6297 32.2004 25.7769 31.7941 25.7748 31.3293C25.7759 30.876 25.6285 30.5506 25.3329 30.3532C25.0372 30.1558 24.6288 30.126 24.1077 30.2638L22.4052 30.7138L22.4042 33.7265L24.1067 33.2765ZM31.6437 22.706L31.6376 31.0469L35.9633 29.9034L35.9721 32.4727L28.9887 34.3187L31.1087 31.499L29.0937 32.0317L29.1074 23.3765L31.6437 22.706ZM41.2767 19.9209C42.8054 19.5168 44.0806 19.7216 45.1022 20.5352C46.1239 21.3489 46.6326 22.5707 46.6284 24.2004C46.6326 25.8157 46.1235 27.3004 45.101 28.6544C44.0786 30.0084 42.803 30.8874 41.2743 31.2915C39.7456 31.6956 38.4676 31.4916 37.4401 30.6794C36.4127 29.8674 35.9026 28.6521 35.9099 27.0337L35.9028 26.8703L36.0545 26.8118L38.0001 26.2975L36.2398 24.8893L36.2687 24.7898C36.6556 23.6099 37.3034 22.5784 38.2118 21.6954C39.1201 20.8124 40.1418 20.2209 41.2767 19.9209ZM41.2822 22.5461C40.541 22.742 39.8985 23.1751 39.3543 23.8456C38.8102 24.516 38.535 25.3418 38.5284 26.3232C38.5335 27.3015 38.8046 27.9799 39.3419 28.3583C39.879 28.7368 40.5241 28.8265 41.2769 28.6275C42.0065 28.4346 42.6441 28.0058 43.1897 27.3412C43.7353 26.6765 44.0056 25.855 44.0006 24.8767C44.0071 23.8953 43.7352 23.2141 43.1848 22.833C42.6345 22.4519 42.0002 22.3563 41.2822 22.5461ZM51.744 24.8687L51.7583 22.3851L56.9004 21.0259L56.9034 23.5048L54.8709 24.0421L56.3343 25.1798L56.2453 25.332C55.298 26.9171 53.9325 27.9454 52.1491 28.4168C50.5973 28.8271 49.3157 28.6331 48.3045 27.8352C47.2933 27.037 46.7882 25.8174 46.7894 24.1762C46.7936 22.5464 47.3033 21.0525 48.3184 19.6943C49.3335 18.336 50.5997 17.4565 52.1168 17.0554C53.7729 16.6176 55.0653 16.8515 55.9939 17.7571L56.0961 17.8587L54.2743 20.2689L54.1629 20.1331C53.7205 19.601 53.0418 19.4559 52.127 19.6978C51.4089 19.8876 50.7779 20.3176 50.2338 20.988C49.6898 21.6584 49.4218 22.4885 49.4299 23.4782C49.4225 24.4108 49.6912 25.0684 50.2357 25.4511C50.7803 25.8336 51.4174 25.9285 52.147 25.7357C53.0503 25.4969 53.7382 24.9905 54.2108 24.2166L51.744 24.8687Z" fill="white"/>
</svg>
