<svg width="314" height="60" viewBox="0 0 314 60" fill="none" xmlns="http://www.w3.org/2000/svg">
<path d="M171.613 30L201.59 60H171.613V30Z" fill="white"/>
<path d="M201.59 30H186.601C186.601 21.7157 179.891 15 171.613 15V0C188.169 0 201.59 13.4315 201.59 30Z" fill="white"/>
<path d="M246.554 30L276.53 60H246.554V30Z" fill="white"/>
<path d="M276.53 30H261.542C261.542 21.7157 254.831 15 246.554 15V0C263.109 0 276.53 13.4315 276.53 30Z" fill="white"/>
<path d="M314 60H299.012C299.012 51.7157 292.302 45 284.024 45V30C300.579 30 314 43.4315 314 60Z" fill="white"/>
<rect x="284.024" width="29.9761" height="15" fill="white"/>
<path d="M209.084 0V15C217.361 15 224.072 21.7157 224.072 30C224.072 38.2843 217.361 45 209.084 45V60C225.639 60 239.06 46.5685 239.06 30C239.06 13.4315 225.639 0 209.084 0Z" fill="white"/>
<path d="M0 22.3014V0.305499H10.4421C12.0705 0.305499 13.4648 0.590631 14.625 1.1609C15.8056 1.73116 16.7114 2.52546 17.3424 3.54379C17.9938 4.56212 18.3194 5.75356 18.3194 7.11813C18.3194 8.48269 17.9938 9.68432 17.3424 10.723C16.6911 11.7617 15.7751 12.5764 14.5945 13.167C13.4343 13.7373 12.0501 14.0224 10.4421 14.0224H3.72495V10.4175H10.1978C11.2766 10.4175 12.1112 10.1222 12.7015 9.53157C13.3121 8.92057 13.6175 8.12627 13.6175 7.14868C13.6175 6.17108 13.3121 5.38697 12.7015 4.79633C12.1112 4.2057 11.2766 3.91039 10.1978 3.91039H4.70199V22.3014H0Z" fill="white"/>
<path d="M31.0505 22.6069C29.4221 22.6069 27.9158 22.332 26.5317 21.7821C25.1679 21.2322 23.9772 20.4582 22.9594 19.4603C21.962 18.442 21.1784 17.2403 20.6084 15.8554C20.0588 14.4501 19.784 12.9022 19.784 11.2118C19.784 8.97149 20.2624 7.01629 21.2191 5.34623C22.1758 3.6558 23.4988 2.34216 25.1883 1.4053C26.8981 0.468432 28.842 0 31.02 0C33.2387 0 35.1927 0.468432 36.8822 1.4053C38.5717 2.34216 39.8947 3.6558 40.8514 5.34623C41.8284 7.03666 42.317 9.00204 42.317 11.2424C42.317 12.9124 42.032 14.4501 41.4621 15.8554C40.9125 17.2403 40.1288 18.442 39.1111 19.4603C38.1137 20.4582 36.9229 21.2322 35.5388 21.7821C34.175 22.332 32.6789 22.6069 31.0505 22.6069ZM31.02 18.8798C32.3023 18.8798 33.432 18.554 34.4091 17.9022C35.3861 17.2505 36.1494 16.3544 36.699 15.2138C37.2689 14.053 37.5539 12.7088 37.5539 11.1813C37.5539 9.67413 37.2791 8.36049 36.7295 7.24033C36.18 6.12016 35.4166 5.25458 34.4396 4.64358C33.4626 4.03259 32.3227 3.72709 31.02 3.72709C29.7376 3.72709 28.6079 4.03259 27.6309 4.64358C26.6538 5.25458 25.8905 6.12016 25.3409 7.24033C24.8117 8.34012 24.5471 9.65377 24.5471 11.1813C24.5471 12.7291 24.8219 14.0835 25.3715 15.2444C25.9211 16.3849 26.6844 17.2811 27.6614 17.9328C28.6384 18.5642 29.758 18.8798 31.02 18.8798Z" fill="white"/>
<path d="M44.755 22.3014V0.305499H52.0828L58.1893 21.5071H55.533L61.6395 0.305499H68.9978V22.3014H64.3568V1.61914H65.1507L59.1969 22.3014H54.3422L48.4495 1.80244H49.2128V22.3014H44.755Z" fill="white"/>
<path d="M72.0374 22.3014V0.305499H82.4795C84.1079 0.305499 85.5022 0.590631 86.6624 1.1609C87.843 1.73116 88.7488 2.52546 89.3798 3.54379C90.0312 4.56212 90.3569 5.75356 90.3569 7.11813C90.3569 8.48269 90.0312 9.68432 89.3798 10.723C88.7285 11.7617 87.8125 12.5764 86.6319 13.167C85.4717 13.7373 84.0875 14.0224 82.4795 14.0224H75.7624V10.4175H82.2352C83.314 10.4175 84.1486 10.1222 84.7389 9.53157C85.3495 8.92057 85.6549 8.12627 85.6549 7.14868C85.6549 6.17108 85.3495 5.38697 84.7389 4.79633C84.1486 4.2057 83.314 3.91039 82.2352 3.91039H76.7394V22.3014H72.0374Z" fill="white"/>
<path d="M89.2231 22.3014L97.1005 0.305499H101.131L93.8946 22.3014H89.2231ZM105.344 22.3014L98.1386 0.305499H102.352L110.229 22.3014H105.344ZM93.3755 13.778H105.711V17.444H93.3755V13.778Z" fill="white"/>
<path d="M112.499 22.3014V0.305499H118.575L128.345 19.7352L126.849 20.1018V0.305499H131.429V22.3014H125.353L115.583 2.87169L117.079 2.50509V22.3014H112.499Z" fill="white"/>
<path d="M145.13 22.6069C143.501 22.6069 141.995 22.332 140.611 21.7821C139.247 21.2322 138.056 20.4582 137.039 19.4603C136.041 18.442 135.257 17.2403 134.688 15.8554C134.138 14.4501 133.863 12.9022 133.863 11.2118C133.863 8.97149 134.342 7.01629 135.298 5.34623C136.255 3.6558 137.578 2.34216 139.267 1.4053C140.977 0.468432 142.921 0 145.099 0C147.318 0 149.272 0.468432 150.961 1.4053C152.651 2.34216 153.974 3.6558 154.931 5.34623C155.908 7.03666 156.396 9.00204 156.396 11.2424C156.396 12.9124 156.111 14.4501 155.541 15.8554C154.992 17.2403 154.208 18.442 153.19 19.4603C152.193 20.4582 151.002 21.2322 149.618 21.7821C148.254 22.332 146.758 22.6069 145.13 22.6069ZM145.099 18.8798C146.381 18.8798 147.511 18.554 148.488 17.9022C149.465 17.2505 150.229 16.3544 150.778 15.2138C151.348 14.053 151.633 12.7088 151.633 11.1813C151.633 9.67413 151.358 8.36049 150.809 7.24033C150.259 6.12016 149.496 5.25458 148.519 4.64358C147.542 4.03259 146.402 3.72709 145.099 3.72709C143.817 3.72709 142.687 4.03259 141.71 4.64358C140.733 5.25458 139.97 6.12016 139.42 7.24033C138.891 8.34012 138.626 9.65377 138.626 11.1813C138.626 12.7291 138.901 14.0835 139.451 15.2444C140 16.3849 140.763 17.2811 141.741 17.9328C142.718 18.5642 143.837 18.8798 145.099 18.8798Z" fill="white"/>
<path d="M23.805 59.725L31.6824 37.7291H35.7127L28.4765 59.725H23.805ZM39.9261 59.725L32.7205 37.7291H36.934L44.8113 59.725H39.9261ZM27.9574 51.2016H40.2925V54.8676H27.9574V51.2016Z" fill="white"/>
<path d="M49.421 59.725L43.2229 37.7291H47.986L53.1154 57.8615H51.6193L56.1992 37.7291H61.5424L66.0612 57.8615H64.5956L69.7556 37.7291H74.3049L68.1068 59.725H62.8553L58.1838 39.9898H59.4051L54.6726 59.725H49.421Z" fill="white"/>
<path d="M72.7046 59.725L80.582 37.7291H84.6122L77.3761 59.725H72.7046ZM88.8257 59.725L81.6201 37.7291H85.8335L93.7109 59.725H88.8257ZM76.857 51.2016H89.1921V54.8676H76.857V51.2016Z" fill="white"/>
<path d="M95.4706 59.725V37.7291H105.302C106.89 37.7291 108.274 38.0041 109.454 38.554C110.635 39.0835 111.551 39.8371 112.202 40.8147C112.854 41.7923 113.179 42.9328 113.179 44.2363C113.179 45.5193 112.854 46.6497 112.202 47.6273C111.551 48.5845 110.635 49.3381 109.454 49.888C108.274 50.4175 106.89 50.6823 105.302 50.6823H99.1955V47.2301H105.18C106.299 47.2301 107.154 46.9756 107.745 46.4664C108.355 45.9369 108.661 45.2037 108.661 44.2668C108.661 43.3096 108.365 42.5866 107.775 42.0978C107.185 41.5886 106.32 41.334 105.18 41.334H100.173V59.725H95.4706ZM107.867 59.725L99.0429 48.2994H104.02L114.217 59.725H107.867Z" fill="white"/>
<path d="M118.857 59.725V56.0591H124.414C126.002 56.0591 127.345 55.7434 128.445 55.112C129.564 54.4603 130.409 53.5743 130.979 52.4542C131.569 51.334 131.864 50.0509 131.864 48.6049C131.864 47.1792 131.579 45.9267 131.009 44.8473C130.439 43.7678 129.595 42.9226 128.475 42.3116C127.376 41.7006 126.022 41.3951 124.414 41.3951H118.949V37.7291H124.414C126.877 37.7291 129.025 38.1772 130.857 39.0733C132.689 39.9491 134.103 41.2118 135.101 42.8615C136.118 44.4908 136.627 46.4257 136.627 48.666C136.627 50.9063 136.118 52.8615 135.101 54.5316C134.083 56.1813 132.658 57.4644 130.826 58.3809C129.015 59.277 126.887 59.725 124.445 59.725H118.857ZM115.987 59.725V37.7291H120.689V59.725H115.987Z" fill="white"/>
<path d="M147.954 60C145.104 60 142.825 59.3686 141.115 58.1059C139.405 56.8228 138.408 55.0204 138.123 52.6986H142.641C142.784 53.8798 143.354 54.8167 144.351 55.5092C145.349 56.1813 146.621 56.5173 148.168 56.5173C149.43 56.5173 150.397 56.2933 151.068 55.8452C151.76 55.3972 152.107 54.7963 152.107 54.0428C152.107 53.3299 151.903 52.7597 151.496 52.332C151.089 51.8839 150.387 51.5275 149.389 51.2627L145.298 50.1324C143.201 49.5418 141.664 48.7373 140.687 47.7189C139.731 46.6802 139.252 45.387 139.252 43.8391C139.252 42.5153 139.588 41.3747 140.26 40.4175C140.952 39.4399 141.919 38.6965 143.161 38.1874C144.402 37.6578 145.858 37.3931 147.527 37.3931C150.091 37.3931 152.137 38.0041 153.664 39.2261C155.19 40.4277 156.055 42.0265 156.259 44.0224H151.74C151.537 42.943 151.038 42.1487 150.244 41.6395C149.471 41.1303 148.473 40.8758 147.252 40.8758C146.193 40.8758 145.349 41.0794 144.718 41.4868C144.087 41.8941 143.771 42.444 143.771 43.1365C143.771 43.666 143.944 44.1548 144.29 44.6028C144.636 45.0305 145.359 45.3971 146.458 45.7026L150.549 46.833C152.707 47.4236 154.254 48.2383 155.19 49.277C156.147 50.2953 156.625 51.5886 156.625 53.1568C156.625 55.3564 155.862 57.0468 154.335 58.2281C152.809 59.4094 150.682 60 147.954 60Z" fill="white"/>
</svg>
